<svg width="37" height="35" viewBox="0 0 37 35" fill="none" xmlns="http://www.w3.org/2000/svg">
<path d="M32.7091 1.27387C29.8818 -0.35796 25.9843 -0.426733 22.5396 1.09482C19.3521 2.50338 17.0544 5.60707 15.6962 7.93952C15.0849 7.79044 14.4306 8.08112 14.1467 8.67274C13.8751 9.23845 14.0338 9.89478 14.4858 10.2869C14.3619 10.5627 14.2863 10.7478 14.2577 10.8199L7.66086 25.3099C6.9957 25.0034 6.20325 25.2765 5.87511 25.9375C5.54086 26.6108 5.81524 27.4278 6.48852 27.7627L6.53344 27.7852L5.04941 31.0469H1.36158C0.609987 31.0469 0 31.6568 0 32.4084C0 33.16 0.609987 33.77 1.36158 33.77H8.16947C8.92106 33.77 9.53105 33.16 9.53105 32.4084C9.53105 31.6568 8.92106 31.0469 8.16947 31.0469H8.04147L8.98571 28.9725C9.1103 29.0086 9.23624 29.0331 9.36218 29.0331C9.86253 29.0331 10.3446 28.756 10.5829 28.2774C10.8947 27.6498 10.6727 26.9029 10.0968 26.5325L16.9326 11.5178C17.1171 11.6029 17.3097 11.6452 17.501 11.6452C18.0082 11.6452 18.495 11.3606 18.7292 10.8724C19.041 10.2236 18.7877 9.45431 18.1709 9.10439C19.3357 7.14165 21.2005 4.66425 23.6411 3.58588C26.2648 2.4265 29.2903 2.44422 31.3483 3.63216C32.8617 4.50564 33.7311 5.89512 33.9339 7.76317C34.3138 11.2618 33.9917 13.6077 32.9795 14.7372C32.8861 14.8413 32.7834 14.9305 32.6785 15.0149V18.0628C33.5173 17.7796 34.3226 17.3174 35.0061 16.5556C36.5801 14.8025 37.1145 11.8302 36.6414 7.46971C36.3487 4.7677 34.9517 2.56739 32.7091 1.27387Z" fill="#FF7EB6"/>
<path d="M28.8315 24.2391C29.7199 24.2391 30.56 24.4413 31.3164 24.7939V18.3802V15.6176V14.0273C31.3164 13.2751 31.3878 13.3465 30.6356 13.3465H27.969C27.2167 13.3465 19.6293 13.9708 17.625 23.8783L16.339 32.0681C16.339 32.8204 16.9483 33.7701 17.7006 33.7701H24.162C23.3845 32.7687 22.9168 31.516 22.9168 30.1537C22.9168 26.8921 25.5705 24.2391 28.8315 24.2391Z" fill="#FF7EB6"/>
<path d="M31.9972 26.8885C31.7882 26.6864 31.5608 26.504 31.3164 26.344C30.6009 25.8756 29.7479 25.6006 28.8316 25.6006C26.3208 25.6006 24.2784 27.643 24.2784 30.1537C24.2784 31.6283 24.9865 32.9381 26.0771 33.7701C26.457 34.06 26.8825 34.2908 27.342 34.4508C27.8097 34.6135 28.3095 34.7061 28.8316 34.7061C29.3538 34.7061 29.8535 34.6135 30.3212 34.4508C30.8033 34.2833 31.2492 34.0375 31.6426 33.7278C32.013 33.4364 32.3391 33.0913 32.604 32.7005C33.0968 31.9727 33.3855 31.0959 33.3855 30.153C33.3855 29.2612 33.1241 28.4312 32.6796 27.7287C32.4839 27.4223 32.2565 27.1399 31.9972 26.8885ZM28.8315 27.8697C30.0923 27.8697 31.1149 28.8922 31.1149 30.153C31.1149 31.4138 30.0923 32.4364 28.8315 32.4364C27.5706 32.4364 26.5482 31.4138 26.5482 30.153C26.5482 28.8922 27.57 27.8697 28.8315 27.8697Z" fill="#FF7EB6"/>
</svg>
